{"glyphs":{"0":{"ha":1389,"x_min":0,"x_max":1190,"o":"m 991 198 l 991 1389 l 198 1389 l 198 198 l 991 198 m 198 0 l 0 198 l 0 1389 l 198 1587 l 991 1587 l 1190 1389 l 1190 198 l 991 0 l 198 0 z "},"1":{"ha":595,"x_min":0,"x_max":397,"o":"m 198 0 l 198 1389 l 0 1389 l 198 1587 l 397 1587 l 397 0 l 198 0 z "},"2":{"ha":1587,"x_min":0,"x_max":1389,"o":"m 198 0 l 0 198 l 0 991 l 198 1190 l 1190 1190 l 1190 1389 l 198 1389 l 0 1587 l 1190 1587 l 1389 1389 l 1389 1190 l 1190 991 l 198 991 l 198 198 l 1389 198 l 1190 0 l 198 0 z "},"3":{"ha":1389,"x_min":0,"x_max":1190,"o":"m 0 0 l 198 198 l 991 198 l 991 595 l 198 595 l 198 793 l 991 793 l 991 1389 l 198 1389 l 0 1587 l 1190 1587 l 1190 0 l 0 0 z "},"4":{"ha":1587,"x_min":0,"x_max":1389,"o":"m 1190 0 l 1190 991 l 198 991 l 0 1190 l 0 1587 l 198 1389 l 198 1190 l 1190 1190 l 1190 1389 l 1389 1587 l 1389 0 l 1190 0 z "},"5":{"ha":1587,"x_min":0,"x_max":1389,"o":"m 198 0 l 0 198 l 1190 198 l 1190 991 l 198 991 l 0 1190 l 0 1389 l 198 1587 l 1389 1587 l 1190 1389 l 198 1389 l 198 1190 l 1190 1190 l 1389 991 l 1389 198 l 1190 0 l 198 0 z "},"6":{"ha":1587,"x_min":0,"x_max":1389,"o":"m 1190 198 l 1190 991 l 198 991 l 198 198 l 1190 198 m 198 0 l 0 198 l 0 1389 l 198 1587 l 1389 1587 l 1190 1389 l 198 1389 l 198 1190 l 1190 1190 l 1389 991 l 1389 198 l 1190 0 l 198 0 z "},"7":{"ha":1190,"x_min":0,"x_max":991,"o":"m 793 0 l 793 1389 l 198 1389 l 0 1587 l 793 1587 l 991 1389 l 991 0 l 793 0 z "},"8":{"ha":1587,"x_min":0,"x_max":1389,"o":"m 1190 198 l 1190 793 l 198 793 l 198 198 l 1190 198 m 1190 991 l 1190 1389 l 198 1389 l 198 991 l 1190 991 m 198 0 l 0 198 l 0 1389 l 198 1587 l 1190 1587 l 1389 1389 l 1389 198 l 1190 0 l 198 0 z "},"9":{"ha":1587,"x_min":0,"x_max":1389,"o":"m 1190 991 l 1190 1389 l 198 1389 l 198 991 l 1190 991 m 1190 0 l 1190 793 l 198 793 l 0 991 l 0 1389 l 198 1587 l 1190 1587 l 1389 1389 l 1389 0 l 1190 0 z "}," ":{"ha":694,"x_min":0,"x_max":0,"o":""},"!":{"ha":595,"x_min":198,"x_max":397,"o":"m 198 0 l 198 198 l 397 198 l 397 0 l 198 0 m 198 595 l 198 1587 l 397 1587 l 397 595 l 198 595 z "},"\"":{"ha":793,"x_min":0,"x_max":595,"o":"m 0 1190 l 0 1587 l 198 1587 l 198 1190 l 0 1190 m 397 1190 l 397 1587 l 595 1587 l 595 1190 l 397 1190 z "},"'":{"ha":397,"x_min":0,"x_max":198,"o":"m 0 1190 l 0 1587 l 198 1587 l 198 1190 l 0 1190 z "},"(":{"ha":793,"x_min":0,"x_max":595,"o":"m 198 0 q 58 58 116 0 q 0 198 0 116 l 0 1389 q 58 1529 0 1471 q 198 1587 116 1587 l 595 1587 l 595 1389 l 198 1389 l 198 198 l 595 198 l 595 0 l 198 0 z "},")":{"ha":793,"x_min":0,"x_max":595,"o":"m 0 0 l 0 198 l 397 198 l 397 1389 l 0 1389 l 0 1587 l 397 1587 q 536 1529 479 1587 q 595 1389 595 1471 l 595 198 q 536 58 595 116 q 397 0 479 0 l 0 0 z "},"*":{"ha":1190,"x_min":0,"x_max":991,"o":"m 397 0 l 397 198 l 198 198 l 198 397 l 0 397 l 0 595 l 198 595 l 198 793 l 397 793 l 397 991 l 595 991 l 595 793 l 793 793 l 793 595 l 991 595 l 991 397 l 793 397 l 793 198 l 595 198 l 595 0 l 397 0 z "},"+":{"ha":793,"x_min":0,"x_max":595,"o":"m 198 397 l 198 595 l 0 595 l 0 793 l 198 793 l 198 991 l 397 991 l 397 793 l 595 793 l 595 595 l 397 595 l 397 397 l 198 397 z "},",":{"ha":595,"x_min":0,"x_max":397,"o":"m 397 0 l 297 198 l 0 198 l 0 595 l 397 595 l 397 0 z "},"-":{"ha":991,"x_min":0,"x_max":793,"o":"m 0 595 l 0 793 l 793 793 l 793 595 l 0 595 z "},".":{"ha":595,"x_min":0,"x_max":397,"o":"m 0 0 l 0 397 l 397 397 l 397 0 l 0 0 z "},"/":{"ha":1587,"x_min":0,"x_max":1389,"o":"m 0 0 l 0 198 l 1190 1389 l 1389 1389 l 1389 1190 l 198 0 l 0 0 z "},":":{"ha":595,"x_min":198,"x_max":397,"o":"m 198 397 l 198 595 l 397 595 l 397 397 l 198 397 m 198 991 l 198 1190 l 397 1190 l 397 991 l 198 991 z "},";":{"ha":595,"x_min":198,"x_max":397,"o":"m 397 198 l 297 397 l 198 397 l 198 595 l 397 595 l 397 198 m 198 991 l 198 1190 l 397 1190 l 397 991 l 198 991 z "},"<":{"ha":1190,"x_min":0,"x_max":991,"o":"m 793 0 l 0 793 l 0 991 l 793 1786 l 991 1786 l 991 1587 l 397 991 l 397 793 l 991 198 l 991 0 l 793 0 z "},"=":{"ha":1389,"x_min":0,"x_max":1190,"o":"m 198 595 l 0 793 l 1190 793 l 991 595 l 198 595 m 0 1190 l 198 1389 l 991 1389 l 1190 1190 l 0 1190 z "},">":{"ha":1190,"x_min":0,"x_max":991,"o":"m 0 0 l 0 198 l 595 793 l 595 991 l 0 1587 l 0 1786 l 198 1786 l 991 991 l 991 793 l 198 0 l 0 0 z "},"?":{"ha":1389,"x_min":397,"x_max":1190,"o":"m 397 0 l 397 198 l 595 198 l 595 0 l 397 0 m 397 397 l 397 793 l 595 991 l 991 991 l 991 1389 l 595 1389 l 397 1587 l 991 1587 l 1190 1389 l 1190 991 l 991 793 l 595 793 l 595 397 l 397 397 z "},"A":{"ha":1389,"x_min":0,"x_max":1190,"o":"m 991 991 l 991 1190 l 198 1190 l 198 991 l 991 991 m 0 0 l 0 1190 l 198 1389 l 991 1389 l 1190 1190 l 1190 0 l 991 198 l 991 793 l 198 793 l 198 198 l 0 0 z "},"B":{"ha":1389,"x_min":0,"x_max":1190,"o":"m 991 198 l 991 595 l 198 595 l 198 198 l 991 198 m 991 793 l 991 1190 l 198 1190 l 198 793 l 991 793 m 0 0 l 0 1389 l 991 1389 l 1190 1190 l 1190 198 l 991 0 l 0 0 z "},"C":{"ha":1587,"x_min":0,"x_max":1389,"o":"m 198 0 l 0 198 l 0 1190 l 198 1389 l 1389 1389 l 1190 1190 l 198 1190 l 198 198 l 1190 198 l 1389 0 l 198 0 z "},"D":{"ha":1389,"x_min":0,"x_max":1190,"o":"m 991 198 l 991 1190 l 198 1190 l 198 198 l 991 198 m 0 0 l 0 1389 l 991 1389 l 1190 1190 l 1190 198 l 991 0 l 0 0 z "},"E":{"ha":1587,"x_min":0,"x_max":1389,"o":"m 0 0 l 0 1389 l 1389 1389 l 1190 1190 l 198 1190 l 198 793 l 991 793 l 1091 694 l 991 595 l 198 595 l 198 198 l 1190 198 l 1389 0 l 0 0 z "},"F":{"ha":1587,"x_min":0,"x_max":1389,"o":"m 0 0 l 0 1389 l 1389 1389 l 1190 1190 l 198 1190 l 198 793 l 793 793 l 595 595 l 198 595 l 198 198 l 0 0 z "},"G":{"ha":1587,"x_min":0,"x_max":1389,"o":"m 198 0 l 0 198 l 0 1190 l 198 1389 l 1190 1389 l 1389 1190 l 1190 991 l 1190 1190 l 198 1190 l 198 198 l 1190 198 l 1190 397 l 991 397 l 793 595 l 1389 595 l 1389 198 l 1190 0 l 198 0 z "},"H":{"ha":1389,"x_min":0,"x_max":1190,"o":"m 0 0 l 0 1389 l 198 1190 l 198 793 l 991 793 l 991 1190 l 1190 1389 l 1190 0 l 991 198 l 991 595 l 198 595 l 198 198 l 0 0 z "},"I":{"ha":1587,"x_min":0,"x_max":1389,"o":"m 0 0 l 198 198 l 595 198 l 595 1190 l 198 1190 l 0 1389 l 1389 1389 l 1190 1190 l 793 1190 l 793 198 l 1190 198 l 1389 0 l 0 0 z "},"J":{"ha":1984,"x_min":0,"x_max":1786,"o":"m 0 0 l 198 198 l 793 198 l 793 1190 l 198 1190 l 0 1389 l 1786 1389 l 1587 1190 l 991 1190 l 991 99 q 963 28 991 58 q 892 0 934 0 l 0 0 z "},"K":{"ha":1587,"x_min":0,"x_max":1389,"o":"m 0 0 l 0 1190 l 198 1389 l 198 991 l 991 991 l 991 1389 l 1190 1190 l 1190 793 l 595 793 l 1389 0 l 991 0 l 198 793 l 198 0 l 0 0 z "},"L":{"ha":1389,"x_min":0,"x_max":1190,"o":"m 198 0 l 0 198 l 0 1389 l 198 1190 l 198 198 l 991 198 l 1190 0 l 198 0 z "},"M":{"ha":1587,"x_min":0,"x_max":1389,"o":"m 0 0 l 0 1190 l 198 1389 l 1190 1389 l 1389 1190 l 1389 0 l 1190 198 l 1190 1190 l 793 1190 l 793 198 l 694 0 l 595 198 l 595 1190 l 198 1190 l 198 198 l 0 0 z "},"N":{"ha":1587,"x_min":0,"x_max":1389,"o":"m 0 0 l 0 1190 l 198 1389 l 1190 1389 l 1389 1190 l 1389 0 l 1190 198 l 1190 1190 l 198 1190 l 198 198 l 0 0 z "},"O":{"ha":1587,"x_min":0,"x_max":1389,"o":"m 595 595 l 595 793 l 793 793 l 793 595 l 595 595 m 1190 198 l 1190 1190 l 198 1190 l 198 198 l 1190 198 m 198 0 l 0 198 l 0 1190 l 198 1389 l 1190 1389 l 1389 1190 l 1389 198 l 1190 0 l 198 0 z "},"P":{"ha":1389,"x_min":0,"x_max":1190,"o":"m 991 793 l 991 1190 l 198 1190 l 198 793 l 991 793 m 0 0 l 0 1190 l 198 1389 l 991 1389 l 1190 1190 l 1190 793 l 991 595 l 198 595 l 198 198 l 0 0 z "},"Q":{"ha":1786,"x_min":0,"x_max":1587,"o":"m 991 198 l 991 397 l 1190 397 l 1190 1190 l 198 1190 l 198 198 l 991 198 m 198 0 l 0 198 l 0 1190 l 198 1389 l 1190 1389 l 1389 1190 l 1389 397 l 1587 397 l 1587 198 l 1389 198 l 1190 0 l 198 0 z "},"R":{"ha":1587,"x_min":0,"x_max":1389,"o":"m 1389 0 l 1190 198 l 1190 595 l 1389 595 l 1389 0 m 0 0 l 0 1190 l 198 1389 l 1190 1389 l 1389 1190 l 1389 793 l 1190 793 l 1190 1190 l 198 1190 l 198 793 l 1190 793 l 1190 595 l 198 595 l 198 198 l 0 0 z "},"S":{"ha":1389,"x_min":0,"x_max":1190,"o":"m 198 0 l 0 198 l 991 198 l 991 595 l 198 595 l 0 793 l 0 1190 l 198 1389 l 1190 1389 l 991 1190 l 198 1190 l 198 793 l 991 793 l 1190 595 l 1190 198 l 991 0 l 198 0 z "},"T":{"ha":1587,"x_min":0,"x_max":1389,"o":"m 694 0 l 595 198 l 595 1190 l 198 1190 l 0 1389 l 1389 1389 l 1190 1190 l 793 1190 l 793 198 l 694 0 z "},"U":{"ha":1587,"x_min":0,"x_max":1389,"o":"m 198 0 l 0 198 l 0 1190 l 198 1389 l 198 198 l 1190 198 l 1190 1389 l 1389 1190 l 1389 198 l 1190 0 l 198 0 z "},"V":{"ha":1389,"x_min":0,"x_max":1190,"o":"m 397 0 l 0 397 l 0 1190 l 198 1389 l 198 595 l 595 198 l 991 595 l 991 1389 l 1190 1190 l 1190 397 l 793 0 l 397 0 z "},"W":{"ha":1587,"x_min":0,"x_max":1389,"o":"m 198 0 l 0 198 l 0 1389 l 198 1190 l 198 397 l 297 198 l 595 198 l 595 991 l 694 1190 l 793 991 l 793 198 l 1091 198 l 1190 397 l 1190 1190 l 1389 1389 l 1389 198 l 1190 0 l 198 0 z "},"X":{"ha":1587,"x_min":0,"x_max":1389,"o":"m 0 0 l 0 198 l 397 595 l 595 694 l 397 793 l 0 1190 l 0 1389 l 198 1389 l 595 991 l 694 793 l 793 991 l 1190 1389 l 1389 1389 l 1389 1190 l 991 793 l 793 694 l 991 595 l 1389 198 l 1389 0 l 1190 0 l 793 397 l 694 595 l 595 397 l 198 0 l 0 0 z "},"Y":{"ha":1190,"x_min":0,"x_max":991,"o":"m 496 0 l 397 198 l 397 595 l 198 595 l 0 793 l 0 1389 l 198 1190 l 198 793 l 793 793 l 793 1190 l 991 1389 l 991 793 l 793 595 l 595 595 l 595 198 l 496 0 z "},"Z":{"ha":1587,"x_min":0,"x_max":1389,"o":"m 0 0 l 0 793 l 1190 793 l 1190 1190 l 198 1190 l 0 1389 l 1389 1389 l 1389 793 l 1190 595 l 198 595 l 198 198 l 1389 198 l 1190 0 l 0 0 z "},"_":{"ha":1190,"x_min":0,"x_max":991,"o":"m 0 0 l 0 198 l 991 198 l 991 0 l 0 0 z "},"a":{"ha":1389,"x_min":0,"x_max":1190,"o":"m 991 991 l 991 1190 l 198 1190 l 198 991 l 991 991 m 0 0 l 0 1190 l 198 1389 l 991 1389 l 1190 1190 l 1190 0 l 991 0 l 991 793 l 198 793 l 198 0 l 0 0 z "},"b":{"ha":1389,"x_min":0,"x_max":1190,"o":"m 991 198 l 991 595 l 198 595 l 198 198 l 991 198 m 991 793 l 991 1190 l 198 1190 l 198 793 l 991 793 m 0 0 l 0 1389 l 991 1389 l 1190 1190 l 1190 198 l 991 0 l 0 0 z "},"c":{"ha":1587,"x_min":0,"x_max":1389,"o":"m 198 0 l 0 198 l 0 1190 l 198 1389 l 1389 1389 l 1190 1190 l 198 1190 l 198 198 l 1190 198 l 1389 0 l 198 0 z "},"d":{"ha":1389,"x_min":0,"x_max":1190,"o":"m 991 198 l 991 1190 l 198 1190 l 198 198 l 991 198 m 0 0 l 0 1389 l 991 1389 l 1190 1190 l 1190 198 l 991 0 l 0 0 z "},"e":{"ha":1587,"x_min":0,"x_max":1389,"o":"m 0 0 l 0 1389 l 1389 1389 l 1190 1190 l 198 1190 l 198 793 l 991 793 l 1091 694 l 991 595 l 198 595 l 198 198 l 1190 198 l 1389 0 l 0 0 z "},"f":{"ha":1587,"x_min":0,"x_max":1389,"o":"m 0 0 l 0 1389 l 1389 1389 l 1190 1190 l 198 1190 l 198 793 l 793 793 l 595 595 l 198 595 l 198 198 l 0 0 z "},"g":{"ha":1587,"x_min":0,"x_max":1389,"o":"m 198 0 l 0 198 l 0 1190 l 198 1389 l 1190 1389 l 1389 1190 l 1190 991 l 1190 1190 l 198 1190 l 198 198 l 1190 198 l 1190 397 l 991 397 l 793 595 l 1389 595 l 1389 198 l 1190 0 l 198 0 z "},"h":{"ha":1389,"x_min":0,"x_max":1190,"o":"m 0 0 l 0 1389 l 198 1190 l 198 793 l 991 793 l 991 1190 l 1190 1389 l 1190 0 l 991 198 l 991 595 l 198 595 l 198 198 l 0 0 z "},"i":{"ha":1587,"x_min":0,"x_max":1389,"o":"m 0 0 l 198 198 l 595 198 l 595 1190 l 198 1190 l 0 1389 l 1389 1389 l 1190 1190 l 793 1190 l 793 198 l 1190 198 l 1389 0 l 0 0 z "},"j":{"ha":1984,"x_min":0,"x_max":1786,"o":"m 0 0 l 198 198 l 793 198 l 793 1190 l 198 1190 l 0 1389 l 1786 1389 l 1587 1190 l 991 1190 l 991 99 q 963 28 991 58 q 892 0 934 0 l 0 0 z "},"k":{"ha":1587,"x_min":0,"x_max":1389,"o":"m 0 0 l 0 1190 l 198 1389 l 198 991 l 991 991 l 991 1389 l 1190 1190 l 1190 793 l 595 793 l 1389 0 l 991 0 l 198 793 l 198 0 l 0 0 z "},"l":{"ha":1389,"x_min":0,"x_max":1190,"o":"m 198 0 l 0 198 l 0 1389 l 198 1190 l 198 198 l 991 198 l 1190 0 l 198 0 z "},"m":{"ha":1587,"x_min":0,"x_max":1389,"o":"m 0 0 l 0 1190 l 198 1389 l 1190 1389 l 1389 1190 l 1389 0 l 1190 198 l 1190 1190 l 793 1190 l 793 198 l 694 0 l 595 198 l 595 1190 l 198 1190 l 198 198 l 0 0 z "},"n":{"ha":1587,"x_min":0,"x_max":1389,"o":"m 0 0 l 0 1190 l 198 1389 l 1190 1389 l 1389 1190 l 1389 0 l 1190 198 l 1190 1190 l 198 1190 l 198 198 l 0 0 z "},"o":{"ha":1587,"x_min":0,"x_max":1389,"o":"m 595 595 l 595 793 l 793 793 l 793 595 l 595 595 m 1190 198 l 1190 1190 l 198 1190 l 198 198 l 1190 198 m 198 0 l 0 198 l 0 1190 l 198 1389 l 1190 1389 l 1389 1190 l 1389 198 l 1190 0 l 198 0 z "},"p":{"ha":1389,"x_min":0,"x_max":1190,"o":"m 991 793 l 991 1190 l 198 1190 l 198 793 l 991 793 m 0 0 l 0 1190 l 198 1389 l 991 1389 l 1190 1190 l 1190 793 l 991 595 l 198 595 l 198 198 l 0 0 z "},"q":{"ha":1786,"x_min":0,"x_max":1587,"o":"m 991 198 l 991 397 l 1190 397 l 1190 1190 l 198 1190 l 198 198 l 991 198 m 198 0 l 0 198 l 0 1190 l 198 1389 l 1190 1389 l 1389 1190 l 1389 397 l 1587 397 l 1587 198 l 1389 198 l 1190 0 l 198 0 z "},"r":{"ha":1587,"x_min":0,"x_max":1389,"o":"m 1389 0 l 1190 198 l 1190 595 l 1389 595 l 1389 0 m 0 0 l 0 1190 l 198 1389 l 1190 1389 l 1389 1190 l 1389 793 l 1190 793 l 1190 1190 l 198 1190 l 198 793 l 1190 793 l 1190 595 l 198 595 l 198 198 l 0 0 z "},"s":{"ha":1389,"x_min":0,"x_max":1190,"o":"m 198 0 l 0 198 l 991 198 l 991 595 l 198 595 l 0 793 l 0 1190 l 198 1389 l 1190 1389 l 991 1190 l 198 1190 l 198 793 l 991 793 l 1190 595 l 1190 198 l 991 0 l 198 0 z "},"t":{"ha":1587,"x_min":0,"x_max":1389,"o":"m 694 0 l 595 198 l 595 1190 l 198 1190 l 0 1389 l 1389 1389 l 1190 1190 l 793 1190 l 793 198 l 694 0 z "},"u":{"ha":1587,"x_min":0,"x_max":1389,"o":"m 198 0 l 0 198 l 0 1190 l 198 1389 l 198 198 l 1190 198 l 1190 1389 l 1389 1190 l 1389 198 l 1190 0 l 198 0 z "},"v":{"ha":1389,"x_min":0,"x_max":1190,"o":"m 397 0 l 0 397 l 0 1190 l 198 1389 l 198 595 l 595 198 l 991 595 l 991 1389 l 1190 1190 l 1190 397 l 793 0 l 397 0 z "},"w":{"ha":1587,"x_min":0,"x_max":1389,"o":"m 198 0 l 0 198 l 0 1389 l 198 1190 l 198 397 l 297 198 l 595 198 l 595 991 l 694 1190 l 793 991 l 793 198 l 1091 198 l 1190 397 l 1190 1190 l 1389 1389 l 1389 198 l 1190 0 l 198 0 z "},"x":{"ha":1587,"x_min":0,"x_max":1389,"o":"m 0 0 l 0 198 l 397 595 l 595 694 l 397 793 l 0 1190 l 0 1389 l 198 1389 l 595 991 l 694 793 l 793 991 l 1190 1389 l 1389 1389 l 1389 1190 l 991 793 l 793 694 l 991 595 l 1389 198 l 1389 0 l 1190 0 l 793 397 l 694 595 l 595 397 l 198 0 l 0 0 z "},"y":{"ha":1190,"x_min":0,"x_max":991,"o":"m 496 0 l 397 198 l 397 595 l 198 595 l 0 793 l 0 1389 l 198 1190 l 198 793 l 793 793 l 793 1190 l 991 1389 l 991 793 l 793 595 l 595 595 l 595 198 l 496 0 z "},"z":{"ha":1587,"x_min":0,"x_max":1389,"o":"m 0 0 l 0 793 l 1190 793 l 1190 1190 l 198 1190 l 0 1389 l 1389 1389 l 1389 793 l 1190 595 l 198 595 l 198 198 l 1389 198 l 1190 0 l 0 0 z "},"‘":{"ha":397,"x_min":0,"x_max":198,"o":"m 198 1190 l 99 1389 l 0 1389 l 0 1587 l 198 1587 l 198 1190 z "},"’":{"ha":397,"x_min":0,"x_max":198,"o":"m 99 1190 l 99 1389 l 0 1389 l 0 1587 l 198 1587 l 198 1389 l 99 1190 z "},"“":{"ha":991,"x_min":0,"x_max":793,"o":"m 0 1190 l 0 1587 l 198 1587 l 198 1190 l 0 1190 m 595 1190 l 595 1587 l 793 1587 l 793 1190 l 595 1190 z "},"”":{"ha":991,"x_min":0,"x_max":793,"o":"m 0 1190 l 0 1587 l 198 1587 l 198 1190 l 0 1190 m 595 1190 l 595 1587 l 793 1587 l 793 1190 l 595 1190 z "}}}
